<?xml version="1.0" encoding="utf-8"?>
<!-- Generator: Adobe Illustrator 23.0.1, SVG Export Plug-In . SVG Version: 6.00 Build 0)  -->
<svg version="1.1" xmlns="http://www.w3.org/2000/svg" xmlns:xlink="http://www.w3.org/1999/xlink" x="0px" y="0px"
	 viewBox="0 0 362 661" style="enable-background:new 0 0 362 661;" xml:space="preserve">
<style type="text/css">
	.st0{fill:none;}
	.st1{fill:#FDFCF1;}
	.st2{fill:#22294D;}
	.st3{fill:#FEFDF2;}
	.st4{fill:url(#SVGID_1_);}
	.st5{fill:#B0182F;}
	.st6{fill:#31AE71;}
	.st7{fill:#FDFCF3;stroke:#22294D;stroke-width:8;stroke-miterlimit:10;}
	.st8{fill:none;stroke:#22294D;stroke-width:2.2935;stroke-miterlimit:10;}
</style>
<pattern  width="62.4" height="47.4" patternUnits="userSpaceOnUse" id="Nouvelle_nuance_de_motif_4" viewBox="0 -47.4 62.4 47.4" style="overflow:visible;">
	<g>
		<rect y="-47.4" class="st0" width="62.4" height="47.4"/>
		<rect y="-47.4" class="st1" width="62.4" height="47.4"/>
		<polygon class="st2" points="14.2,-30.8 13.2,-42.3 21.7,-34.5 		"/>
		<polygon class="st2" points="43.7,-11 54.4,-15.2 49.3,-4.8 		"/>
		<polygon class="st2" points="51.6,-32 49,-43.3 58.5,-36.7 		"/>
		<polygon class="st2" points="10.5,-4.4 8,-15.6 17.4,-9.1 		"/>
		<polygon class="st2" points="28.2,-19.9 34.8,-29.4 36.3,-18 		"/>
	</g>
</pattern>
<g id="fond">
	<rect class="st3" width="362" height="661"/>
</g>
<g id="formes">
	<pattern  id="SVGID_1_" xlink:href="#Nouvelle_nuance_de_motif_4" patternTransform="matrix(1 0 0 1 9.4492 -28.1835)">
	</pattern>
	<path class="st4" d="M175.9,659.8H362V477c-4.6-1.4-9-3.1-13-5.4c-20.6-11.6-36.9-24.8-52.5-43.2c-10.6-12.5-19.3-24.2-33.7-31.4
		c-17.9-8.9-58.3-17.3-81.5-4.5c-22.3,12.3-42.6,59.4-42.1,84.7c0.6,33.1,18.6,56.8,30.8,81.4c12.1,24.6,14.7,43.2,9.3,76.4
		C178,643.4,176.7,651.7,175.9,659.8z"/>
	<path class="st5" d="M112.7,304.8c-7.9-21-35.5-15.1-51-23.8c-10.6-6-19-12.8-27.1-22.2c-5.5-6.4-10-12.4-17.4-16.1
		c-3.9-2-9.9-3.9-16.4-4.9V421c0.2,0.1,0.3,0.2,0.5,0.2c12.8,5.5,30.6-1,45.6-4.6c14.3-3.4,35.8-14.3,46.3-31l-1.2,1.2
		c5.3-7.9,9.2-17.5,12.8-26C113.8,339.6,119.8,323.5,112.7,304.8z"/>
	<path class="st6" d="M278.3,0c-3.5,5.1-6.8,10.3-12.4,14.2c-10.1,7.1-28.6,9.9-43,13.4c-22.7,5.4-52.1,5.9-61.6,22
		c-12.1,20.4-26.7,45.8-5.7,81.1c12.8,21.5,50.9,51.2,81.3,60.5c31,9.5,42.5-3.1,53.3-13.2c18.9-17.7,19.8-54.4,52.8-61.3
		c5.4-1.1,12-0.9,19.1-0.1V0H278.3z"/>
</g>
<g id="logo">
	<g>
		<rect x="99.2" y="187.3" class="st7" width="164" height="282.5"/>
		<g>
			<path class="st8" d="M170.4,306.1c-24.4-12.3-34.8-60.8-14.9-80c26.3-25.3,60.2-8.6,65,24.6c3.2,21.9-5.6,42.9-23.4,56.5"/>
			<path class="st8" d="M116.4,433.7c0-12.6,4.3-20.1,9.5-22.3c7.1-3.1,17.3,8.1,27.1,10.6c5,1.3,16.4-0.4,17.7-8.7
				c1.3-8.3-5-10-10.1-8.6c-11.1,3-9.2,30.4,0.1,35.9c11.4,6.8,22.5,1,27.2-15.9c4.2-15.2,4.7-31,2.4-46.7c-2.8-18.7-2.5-36.2,0-54
				c1-7.3,1.5-19-4.4-21.3c-4.4-1.7-10.4-1.8-12,1.8c-2.3,5.5,2.7,9.1,7.4,9c4.8-0.1,13.4-7.6,20.7-6.5c7.1,1.1,9.3,13.1,12.9,20.6
				c6.3,13.2,22.2,15.2,31.1,5.3"/>
		</g>
	</g>
</g>
</svg>
