<?xml version="1.0" encoding="utf-8"?>
<!-- Generator: Adobe Illustrator 23.0.1, SVG Export Plug-In . SVG Version: 6.00 Build 0)  -->
<svg version="1.1" xmlns="http://www.w3.org/2000/svg" xmlns:xlink="http://www.w3.org/1999/xlink" x="0px" y="0px"
	 viewBox="0 0 242 442" style="enable-background:new 0 0 242 442;" xml:space="preserve">
<style type="text/css">
	.st0{fill:none;}
	.st1{fill:#FDFCF1;}
	.st2{fill:#22294D;}
	.st3{fill:#FDFCF3;}
	.st4{fill:url(#SVGID_1_);}
	.st5{fill:#B0182F;}
	.st6{fill:#31AE71;}
	.st7{fill:#FDFCF3;stroke:#22294D;stroke-width:8;stroke-miterlimit:10;}
	.st8{fill:none;stroke:#22294D;stroke-width:2.2935;stroke-miterlimit:10;}
</style>
<pattern  width="62.4" height="47.4" patternUnits="userSpaceOnUse" id="Nouvelle_nuance_de_motif_4" viewBox="0 -47.4 62.4 47.4" style="overflow:visible;">
	<g>
		<rect y="-47.4" class="st0" width="62.4" height="47.4"/>
		<rect y="-47.4" class="st1" width="62.4" height="47.4"/>
		<polygon class="st2" points="14.2,-30.8 13.2,-42.3 21.7,-34.5 		"/>
		<polygon class="st2" points="43.7,-11 54.4,-15.2 49.3,-4.8 		"/>
		<polygon class="st2" points="51.6,-32 49,-43.3 58.5,-36.7 		"/>
		<polygon class="st2" points="10.5,-4.4 8,-15.6 17.4,-9.1 		"/>
		<polygon class="st2" points="28.2,-19.9 34.8,-29.4 36.3,-18 		"/>
	</g>
</pattern>
<g id="Calque_3">
	<rect y="0.5" class="st3" width="242" height="441.5"/>
</g>
<g id="fond">
	<pattern  id="SVGID_1_" xlink:href="#Nouvelle_nuance_de_motif_4" patternTransform="matrix(1 0 0 1 -50.5508 -42.4569)">
	</pattern>
	<path class="st4" d="M117.3,442H242V319.6c-3.1-0.9-6.1-2.1-8.7-3.6c-13.8-7.8-24.7-16.6-35.1-28.9c-7.1-8.3-12.9-16.2-22.6-21
		c-12-6-39-11.6-54.6-3c-15,8.2-28.5,39.8-28.2,56.7c0.4,22.2,12.5,38.1,20.6,54.5c8.1,16.5,9.8,28.9,6.2,51.2
		C118.7,431,117.9,436.6,117.3,442z"/>
	<path class="st5" d="M75,204.2c-5.3-14-23.8-10.1-34.2-16c-7.1-4-12.8-8.6-18.2-14.9C19,169.1,16,165,11,162.5
		c-2.6-1.3-6.6-2.6-11-3.3V282c0.1,0,0.2,0.1,0.3,0.2c8.5,3.7,20.5-0.7,30.5-3.1c9.6-2.3,24-9.6,31-20.8l-0.8,0.8
		c3.6-5.3,6.2-11.7,8.6-17.4C75.7,227.5,79.7,216.7,75,204.2z"/>
	<path class="st6" d="M185.9,0c-2.4,3.4-4.5,6.9-8.3,9.5c-6.8,4.7-19.2,6.6-28.8,8.9c-15.2,3.6-34.9,3.9-41.3,14.7
		c-8.1,13.7-17.9,30.7-3.8,54.3c8.6,14.4,34.1,34.3,54.5,40.5c20.8,6.4,28.5-2.1,35.7-8.9c12.6-11.9,13.3-36.4,35.4-41.1
		c3.6-0.8,8-0.6,12.8,0V0H185.9z"/>
</g>
<g id="Calque_1">
	<g>
		<rect x="39.2" y="79.3" class="st7" width="164" height="282.5"/>
		<g>
			<path class="st8" d="M110.4,198.1c-24.4-12.3-34.8-60.8-14.9-80c26.3-25.3,60.2-8.6,65,24.6c3.2,21.9-5.6,42.9-23.4,56.5"/>
			<path class="st8" d="M56.4,325.7c0-12.6,4.3-20.1,9.5-22.3c7.1-3.1,17.3,8.1,27.1,10.6c5,1.3,16.4-0.4,17.7-8.7
				c1.3-8.3-5-10-10.1-8.6c-11.1,3-9.2,30.4,0.1,35.9c11.4,6.8,22.5,1,27.2-15.9c4.2-15.2,4.7-31,2.4-46.7c-2.8-18.7-2.5-36.2,0-54
				c1-7.3,1.5-19-4.4-21.3c-4.4-1.7-10.4-1.8-12,1.8c-2.3,5.5,2.7,9.1,7.4,9c4.8-0.1,13.4-7.6,20.7-6.5c7.1,1.1,9.3,13.1,12.9,20.6
				c6.3,13.2,22.2,15.2,31.1,5.3"/>
		</g>
	</g>
</g>
</svg>
